<svg width="800" height="800" viewBox="0 0 800 800" fill="none" xmlns="http://www.w3.org/2000/svg">
<circle cx="400" cy="400" r="400" fill="black"/>
<path fill-rule="evenodd" clip-rule="evenodd" d="M160 176.662C160 178.882 163.583 191.691 167.963 205.128C172.343 218.564 178.271 238.254 181.138 248.885C184.006 259.516 192.071 287.473 199.063 311.013C206.054 334.553 216.997 371.829 223.38 393.85C248.597 480.849 259.56 516.099 262.537 519.78C264.879 522.676 273.575 523.629 297.626 523.629C324.703 523.629 330.325 522.878 334.314 518.722C336.907 516.024 350.421 497.386 364.353 477.303C378.282 457.221 391.002 440.86 392.62 440.946C394.235 441.032 414.943 467.321 438.634 499.368C507.896 593.066 531.751 624.345 534.799 625.463C538.568 626.85 539.521 630.4 500.237 496.563C481.651 433.237 461.756 365.271 456.03 345.529C450.301 325.786 443.439 302.798 440.779 294.446L435.942 279.259L402.839 278.483L369.737 277.707L362.458 285.582C358.455 289.912 343.82 309.301 329.937 328.668C316.054 348.036 303.81 362.861 302.733 361.61C301.654 360.359 289.388 343.872 275.478 324.977C261.568 306.079 241.706 279.25 231.341 265.356C220.976 251.464 201.72 225.569 188.547 207.817C163.257 173.732 160 170.179 160 176.662Z" fill="url(#paint0_linear_1277_2251)"/>
<path fill-rule="evenodd" clip-rule="evenodd" d="M525.275 278.386C524.514 278.901 507.837 317.975 501.771 332.084C499.103 338.285 493.874 350.049 490.148 358.226C486.422 366.402 481.213 376.988 480.317 379.05C478.432 383.381 477.18 371.86 511.635 495.271C523.533 538.294 524.68 542.175 525.254 541.344C525.575 540.882 527.974 535.013 530.585 528.303C533.196 521.594 538.274 508.789 541.869 499.848C556.339 463.862 568.641 433.032 587.1 386.49C597.223 360.965 606.908 336.629 616.08 313.668C621.064 301.19 630.876 277.359 629.83 278.386C627.739 278.386 526.321 278.386 525.275 278.386Z" fill="white"/>
<defs>
<linearGradient id="paint0_linear_1277_2251" x1="348.256" y1="174" x2="348.256" y2="625.815" gradientUnits="userSpaceOnUse">
<stop stop-color="#6B21D0"/>
<stop offset="0.509615" stop-color="#FFD84C"/>
<stop offset="1" stop-color="#DBBA46"/>
</linearGradient>
</defs>
</svg>
