<svg width="1429" height="452" viewBox="0 0 1429 452" fill="none" xmlns="http://www.w3.org/2000/svg">
<path fill-rule="evenodd" clip-rule="evenodd" d="M1127.77 70.3148C1112.06 76.1644 1104.24 87.0811 1104.24 103.168C1104.24 112.426 1105.9 117.784 1110.54 123.427C1129.41 146.378 1171.44 146.257 1190.56 123.193C1196 116.637 1196.93 113.066 1196.01 102.314C1193.53 73.227 1160.96 57.957 1127.77 70.3148ZM746.667 99.6845C740.687 100.632 740.421 101.771 739.668 129.779L738.887 158.888L722.089 160.035L705.292 161.182L704.508 189.182L703.721 217.184L721.305 217.868L738.887 218.554L740.43 271.336C741.801 318.376 742.608 325.261 747.823 334.628C754.204 346.082 768.927 356.921 786.48 363.089C800.254 367.929 845.359 368.384 862.07 363.854L873.268 360.815V334.436V308.054L854.959 308.811C819.994 310.259 817.721 304.185 821.405 219.215C821.445 218.315 833.13 217.283 847.372 216.92L873.268 216.259V188.721V161.182L846.672 160.035L820.076 158.888L819.74 143.971C819.555 135.767 819.239 122.082 819.04 113.564L818.676 98.0735L785.78 98.3856C767.689 98.5578 750.088 99.1429 746.667 99.6845ZM935.641 128.481L934.859 158.888L918.129 159.592C908.927 159.978 900.738 161.164 899.932 162.224C899.125 163.287 898.854 176.088 899.332 190.674L900.2 217.195L916.878 217.875L933.558 218.554L934.666 267.894C935.641 311.241 936.5 318.814 941.738 330.254C947.88 343.666 959.801 355.278 973.446 361.132C984.816 366.011 1014.41 368.322 1037.72 366.151C1071.63 362.995 1070.64 363.941 1070.64 334.739C1070.64 307.106 1070.02 306.161 1053.2 308.398C1048.05 309.082 1038.57 308.478 1032.13 307.058C1021.79 304.774 1020.07 303.418 1017.46 295.462C1015.81 290.448 1014.84 271.384 1015.27 252.502L1016.05 218.554L1042.64 217.407L1069.24 216.259L1070.04 190.052C1070.63 170.63 1069.9 163.363 1067.24 161.976C1065.26 160.946 1052.62 160.09 1039.14 160.069L1014.65 160.035V129.054V98.0735H975.535H936.422L935.641 128.481ZM536.408 157.901C519.429 160.641 496.9 169.506 484.806 178.21C472.401 187.14 460.564 206.116 459.618 218.591L458.926 227.734L496.043 228.374L533.161 229.014L536.369 223.242C542.595 212.041 562.324 206.887 580.69 211.665C587.448 213.423 594.388 230.06 589.897 233.741C588.276 235.07 572.632 238.136 555.135 240.557C505.226 247.456 487.16 252.686 471.351 264.807C455.432 277.011 450.858 286.494 451.003 306.964C451.135 325.752 458.257 339.544 473.717 350.959C488.619 361.963 503.532 365.467 534.516 365.247C562.005 365.051 570.365 362.683 587.764 350.16C593.226 346.229 598.07 343.409 598.526 343.893C598.982 344.377 600.561 348.386 602.037 352.804L604.716 360.836H639.358H674L673.345 290.122C672.637 213.987 671.414 206.143 657.502 188.572C637.998 163.929 583.929 150.236 536.408 157.901ZM1111.15 162.839C1110.39 164.453 1110.1 209.661 1110.5 263.304L1111.23 360.836L1151.16 361.474L1191.08 362.109L1190.35 261.647L1189.62 161.182L1151.07 160.544C1121.78 160.058 1112.19 160.609 1111.15 162.839ZM1231.43 163.05C1230.65 164.71 1230.38 177.361 1230.82 191.163L1231.62 216.259L1275.71 216.89C1299.96 217.239 1319.81 218.129 1319.81 218.873C1319.81 220.046 1289.72 251.901 1258.32 283.958C1252.76 289.638 1243.48 299.641 1237.71 306.186L1227.2 318.087L1228.01 339.461L1228.82 360.836L1328.9 361.439L1428.99 362.041V334.475V306.906H1381.4C1338.19 306.906 1327.84 305.61 1336.41 301.266C1339.99 299.455 1421.73 212.893 1425.76 206.657C1429.13 201.434 1430.25 169.983 1427.29 163.665C1425.79 160.453 1414.52 160.035 1329.22 160.035C1252.19 160.035 1232.56 160.641 1231.43 163.05ZM568.111 278.661C538.903 284.167 530.316 288.759 530.316 298.874C530.316 313.396 556.409 319 575.396 308.559C585.261 303.131 594.033 287.221 590.877 280.476C589.326 277.16 580.006 276.419 568.111 278.661Z" fill="white"/>
<path fill-rule="evenodd" clip-rule="evenodd" d="M0 2.66204C0 4.88208 3.5832 17.6915 7.96327 31.1277C12.3433 44.5639 18.2714 64.2543 21.1385 74.8851C24.0056 85.5159 32.0711 113.473 39.0626 137.013C46.054 160.553 56.9974 197.829 63.3804 219.85C88.5974 306.849 99.5597 342.099 102.537 345.78C104.879 348.676 113.575 349.629 137.626 349.629C164.703 349.629 170.325 348.878 174.314 344.722C176.907 342.024 190.421 323.386 204.353 303.303C218.282 283.221 231.002 266.86 232.62 266.946C234.235 267.032 254.943 293.321 278.634 325.368C347.896 419.066 371.751 450.345 374.799 451.463C378.568 452.85 379.521 456.4 340.237 322.563C321.651 259.237 301.756 191.271 296.03 171.529C290.301 151.786 283.439 128.798 280.779 120.446L275.942 105.259L242.839 104.483L209.737 103.707L202.458 111.582C198.455 115.912 183.82 135.301 169.937 154.668C156.054 174.036 143.81 188.861 142.733 187.61C141.654 186.359 129.388 169.872 115.478 150.977C101.568 132.079 81.7056 105.25 71.341 91.3559C60.9764 77.4641 41.7197 51.5692 28.5472 33.8171C3.25746 -0.267641 0 -3.82136 0 2.66204Z" fill="url(#paint0_linear_1277_2249)"/>
<path fill-rule="evenodd" clip-rule="evenodd" d="M365.275 104.386C364.514 104.901 347.837 143.975 341.771 158.084C339.103 164.285 333.874 176.049 330.148 184.226C326.422 192.402 321.213 202.988 320.317 205.05C318.432 209.381 317.18 197.86 351.635 321.271C363.533 364.294 364.68 368.175 365.254 367.344C365.575 366.882 367.974 361.013 370.585 354.303C373.196 347.594 378.274 334.789 381.869 325.848C396.339 289.862 408.641 259.032 427.1 212.49C437.223 186.965 446.908 162.629 456.08 139.668C461.064 127.19 470.876 103.359 469.83 104.386C467.739 104.386 366.321 104.386 365.275 104.386Z" fill="white"/>
<defs>
<linearGradient id="paint0_linear_1277_2249" x1="188.256" y1="0" x2="188.256" y2="451.815" gradientUnits="userSpaceOnUse">
<stop stop-color="#6B21D0"/>
<stop offset="0.509615" stop-color="#FFD84C"/>
<stop offset="1" stop-color="#DBBA46"/>
</linearGradient>
</defs>
</svg>
